<svg width="30" height="30" viewBox="0 0 30 30" fill="none" xmlns="http://www.w3.org/2000/svg">
<circle cx="15" cy="15" r="14.5" stroke="white"/>
<path d="M12.25 24V21.75H9V20.25H11.25V9.75H9V8.25H12.25V6H13.75V8.25H16.5V6H18V8.325C18.9 8.50833 19.625 8.95 20.175 9.65C20.725 10.35 21 11.1333 21 12C21 12.4667 20.9083 12.9292 20.725 13.3875C20.5417 13.8458 20.275 14.2583 19.925 14.625C20.575 14.9583 21.0833 15.4292 21.45 16.0375C21.8167 16.6458 22 17.3 22 18C22 19.0333 21.6375 19.9167 20.9125 20.65C20.1875 21.3833 19.3 21.75 18.25 21.75H18V24H16.5V21.75H13.75V24H12.25ZM12.75 14.25H17.25C17.8833 14.25 18.4167 14.0292 18.85 13.5875C19.2833 13.1458 19.5 12.6167 19.5 12C19.5 11.3667 19.2833 10.8333 18.85 10.4C18.4167 9.96667 17.8833 9.75 17.25 9.75H12.75V14.25ZM12.75 20.25H18.25C18.8833 20.25 19.4167 20.0292 19.85 19.5875C20.2833 19.1458 20.5 18.6167 20.5 18C20.5 17.3667 20.2833 16.8333 19.85 16.4C19.4167 15.9667 18.8833 15.75 18.25 15.75H12.75V20.25Z" fill="white"/>
</svg>
