<svg width="63" height="38" viewBox="0 0 63 38" fill="none" xmlns="http://www.w3.org/2000/svg">
<path d="M0.0486506 26.9886V26.2727H6.37678V26.9886H3.61115V35H2.81428V26.9886H0.0486506ZM7.33345 35V28.4545H8.07067V29.4602H8.12607C8.25675 29.1307 8.48402 28.8651 8.80788 28.6634C9.13459 28.4588 9.50391 28.3565 9.91584 28.3565C9.97834 28.3565 10.0479 28.358 10.1246 28.3608C10.2013 28.3636 10.2653 28.3665 10.3164 28.3693V29.1406C10.2823 29.1349 10.2227 29.1264 10.1374 29.1151C10.0522 29.1037 9.95987 29.098 9.86044 29.098C9.51953 29.098 9.21555 29.1705 8.94851 29.3153C8.6843 29.4574 8.4755 29.6548 8.32209 29.9077C8.16868 30.1605 8.09197 30.4489 8.09197 30.7727V35H7.33345ZM11.6193 35V28.4545H12.3821V35H11.6193ZM11.6832 27.5469L10.375 25.6122H11.2741L12.3651 27.5469H11.6832ZM15.1467 30.9091V35H14.3881V28.4545H15.1254V29.4815H15.1935C15.3469 29.1463 15.5856 28.8778 15.9094 28.6761C16.2362 28.4716 16.6396 28.3693 17.1197 28.3693C17.56 28.3693 17.9464 28.4616 18.2788 28.6463C18.614 28.8281 18.8739 29.0966 19.0586 29.4517C19.2461 29.8068 19.3398 30.2429 19.3398 30.7599V35H18.5813V30.8068C18.5813 30.2699 18.4308 29.8452 18.1296 29.5327C17.8313 29.2202 17.4308 29.0639 16.9279 29.0639C16.5842 29.0639 16.2788 29.1378 16.0117 29.2855C15.7447 29.4332 15.533 29.6463 15.3768 29.9247C15.2234 30.2003 15.1467 30.5284 15.1467 30.9091ZM22.0959 30.9091V35H21.3374V26.2727H22.0959V29.4815H22.1641C22.3175 29.1435 22.5547 28.8736 22.8757 28.6719C23.1996 28.4702 23.6087 28.3693 24.103 28.3693C24.5462 28.3693 24.9354 28.4602 25.2706 28.642C25.6058 28.8239 25.8672 29.0923 26.0547 29.4474C26.2422 29.8026 26.3359 30.2401 26.3359 30.7599V35H25.5732V30.8068C25.5732 30.267 25.4226 29.8423 25.1214 29.5327C24.8232 29.2202 24.4197 29.0639 23.9112 29.0639C23.5618 29.0639 23.2507 29.1378 22.978 29.2855C22.7053 29.4332 22.4893 29.6463 22.3303 29.9247C22.174 30.2003 22.0959 30.5284 22.0959 30.9091ZM34.065 35.1364C33.5281 35.1364 33.0579 34.9943 32.6545 34.7102C32.2511 34.4261 31.9357 34.0298 31.7085 33.5213C31.484 33.0128 31.3718 32.4205 31.3718 31.7443C31.3718 31.071 31.484 30.4815 31.7085 29.9759C31.9357 29.4673 32.2525 29.0724 32.6587 28.7912C33.065 28.5071 33.538 28.3651 34.0778 28.3651C34.4755 28.3651 34.8065 28.4361 35.0707 28.5781C35.3349 28.7173 35.5465 28.8906 35.7056 29.098C35.8647 29.3054 35.9883 29.5071 36.0763 29.7031H36.1445V26.2727H36.9073V35H36.1658V33.7855H36.0763C35.9883 33.9844 35.8633 34.1889 35.7013 34.3991C35.5394 34.6065 35.3249 34.7812 35.0579 34.9233C34.7937 35.0653 34.4627 35.1364 34.065 35.1364ZM34.1545 34.4418C34.5778 34.4418 34.9386 34.3267 35.2369 34.0966C35.5352 33.8636 35.7624 33.544 35.9187 33.1378C36.0778 32.7287 36.1573 32.2599 36.1573 31.7315C36.1573 31.2088 36.0792 30.7472 35.9229 30.3466C35.7667 29.9432 35.5394 29.6278 35.2411 29.4006C34.9428 29.1705 34.5806 29.0554 34.1545 29.0554C33.717 29.0554 33.3477 29.1747 33.0465 29.4134C32.7482 29.6491 32.521 29.9687 32.3647 30.3722C32.2113 30.7756 32.1346 31.2287 32.1346 31.7315C32.1346 32.2401 32.2127 32.6989 32.369 33.108C32.5252 33.517 32.7525 33.8423 33.0508 34.0838C33.3519 34.3224 33.7198 34.4418 34.1545 34.4418ZM43.2269 32.4986V28.4545H43.9854V35H43.2269V33.9134H43.1673C43.0138 34.2486 42.771 34.5284 42.4386 34.7528C42.1062 34.9744 41.6999 35.0852 41.2198 35.0852C40.8022 35.0852 40.4315 34.9943 40.1076 34.8125C39.7837 34.6278 39.5295 34.358 39.3448 34.0028C39.1602 33.6477 39.0678 33.2116 39.0678 32.6946V28.4545H39.8263V32.6477C39.8263 33.1591 39.9769 33.571 40.2781 33.8835C40.5792 34.1932 40.9656 34.348 41.4371 34.348C41.7326 34.348 42.0167 34.277 42.2894 34.1349C42.5621 33.9929 42.7866 33.7855 42.9627 33.5128C43.1388 33.2372 43.2269 32.8991 43.2269 32.4986ZM46.522 37.4545C46.3714 37.4545 46.2308 37.4403 46.1001 37.4119C45.9695 37.3835 45.8658 37.3523 45.7891 37.3182L45.9936 36.6491C46.2521 36.7287 46.4822 36.7571 46.6839 36.7344C46.8857 36.7145 47.0646 36.6236 47.2209 36.4616C47.3771 36.3026 47.5163 36.0582 47.6385 35.7287L47.8771 35.0639L45.4695 28.4545H46.2919L48.2351 33.9986H48.2947L50.2379 28.4545H51.0604L48.2905 36.0355C48.174 36.3509 48.0305 36.6136 47.8601 36.8239C47.6896 37.0369 47.4922 37.1946 47.2678 37.2969C47.0462 37.402 46.7976 37.4545 46.522 37.4545ZM54.9563 35.1364C54.3455 35.1364 53.8171 34.9943 53.3711 34.7102C52.9251 34.4233 52.5799 34.027 52.3356 33.5213C52.0941 33.0128 51.9734 32.4276 51.9734 31.7656C51.9734 31.1065 52.0941 30.5213 52.3356 30.0099C52.5799 29.4957 52.9165 29.0937 53.3455 28.804C53.7773 28.5114 54.2759 28.3651 54.8413 28.3651C55.1964 28.3651 55.5387 28.4304 55.8683 28.5611C56.1978 28.6889 56.4933 28.8864 56.7546 29.1534C57.0188 29.4176 57.2276 29.7514 57.381 30.1548C57.5344 30.5554 57.6112 31.0298 57.6112 31.5781V31.9531H52.4975V31.2841H56.8356C56.8356 30.8636 56.7504 30.4858 56.5799 30.1506C56.4123 29.8125 56.1779 29.5455 55.8768 29.3494C55.5785 29.1534 55.2333 29.0554 54.8413 29.0554C54.4265 29.0554 54.0614 29.1662 53.7461 29.3878C53.4308 29.6094 53.1836 29.902 53.0046 30.2656C52.8285 30.6293 52.739 31.027 52.7362 31.4588V31.8594C52.7362 32.3793 52.8256 32.8338 53.0046 33.223C53.1864 33.6094 53.4435 33.9091 53.7759 34.1222C54.1083 34.3352 54.5018 34.4418 54.9563 34.4418C55.266 34.4418 55.5373 34.3935 55.7702 34.2969C56.006 34.2003 56.2035 34.071 56.3626 33.9091C56.5245 33.7443 56.6467 33.5639 56.729 33.3679L57.4492 33.6023C57.3498 33.8778 57.1864 34.1321 56.9592 34.3651C56.7347 34.598 56.4535 34.7855 56.1154 34.9276C55.7802 35.0668 55.3938 35.1364 54.9563 35.1364ZM55.8214 27.7045L54.8029 26.473L53.7844 27.7045H53.043V27.6491L54.4833 25.9318H55.1225L56.5629 27.6491V27.7045H55.8214ZM54.8029 37.0923C54.6495 37.0923 54.516 37.0384 54.4023 36.9304C54.2915 36.8224 54.2362 36.6946 54.2362 36.5469C54.2362 36.3963 54.2915 36.267 54.4023 36.1591C54.516 36.054 54.6495 36.0014 54.8029 36.0014C54.9592 36.0014 55.0927 36.054 55.2035 36.1591C55.3171 36.267 55.3739 36.3963 55.3739 36.5469C55.3739 36.6946 55.3171 36.8224 55.2035 36.9304C55.0927 37.0384 54.9592 37.0923 54.8029 37.0923ZM61.8608 28.4545V29.1151H58.7372V28.4545H61.8608ZM59.7131 26.8864H60.4759V33.2912C60.4759 33.5639 60.5227 33.7784 60.6165 33.9347C60.7102 34.0881 60.8324 34.1974 60.983 34.2628C61.1335 34.3253 61.294 34.3565 61.4645 34.3565C61.5639 34.3565 61.6491 34.3509 61.7202 34.3395C61.7912 34.3253 61.8537 34.3111 61.9077 34.2969L62.0696 34.983C61.9957 35.0114 61.9048 35.0369 61.7969 35.0597C61.6889 35.0852 61.5554 35.098 61.3963 35.098C61.1179 35.098 60.8494 35.0369 60.5909 34.9148C60.3352 34.7926 60.125 34.6108 59.9602 34.3693C59.7955 34.1278 59.7131 33.8281 59.7131 33.4702V26.8864Z" fill="#FEFEFE"/>
<path d="M23.849 16.1511L31.4011 12.4271L35.125 4.87501L27.5729 8.59897L23.849 16.1511ZM29.5 11.5417C29.2049 11.5417 28.9575 11.4419 28.7578 11.2422C28.5582 11.0425 28.4583 10.7951 28.4583 10.5C28.4583 10.2049 28.5582 9.95748 28.7578 9.75782C28.9575 9.55817 29.2049 9.45834 29.5 9.45834C29.7951 9.45834 30.0425 9.55817 30.2422 9.75782C30.4419 9.95748 30.5417 10.2049 30.5417 10.5C30.5417 10.7951 30.4419 11.0425 30.2422 11.2422C30.0425 11.4419 29.7951 11.5417 29.5 11.5417ZM29.5 20.9167C28.0764 20.9167 26.7309 20.6432 25.4636 20.0964C24.1962 19.5495 23.0894 18.803 22.1432 17.8568C21.1971 16.9106 20.4505 15.8038 19.9037 14.5365C19.3568 13.2691 19.0833 11.9236 19.0833 10.5C19.0833 9.05904 19.3568 7.70487 19.9037 6.43751C20.4505 5.17015 21.1971 4.06772 22.1432 3.13022C23.0894 2.19272 24.1962 1.45053 25.4636 0.903656C26.7309 0.356781 28.0764 0.0833435 29.5 0.0833435C30.941 0.0833435 32.2951 0.356781 33.5625 0.903656C34.8299 1.45053 35.9323 2.19272 36.8698 3.13022C37.8073 4.06772 38.5495 5.17015 39.0964 6.43751C39.6432 7.70487 39.9167 9.05904 39.9167 10.5C39.9167 11.9236 39.6432 13.2691 39.0964 14.5365C38.5495 15.8038 37.8073 16.9106 36.8698 17.8568C35.9323 18.803 34.8299 19.5495 33.5625 20.0964C32.2951 20.6432 30.941 20.9167 29.5 20.9167ZM29.5 19.3542C31.9653 19.3542 34.0573 18.4905 35.7761 16.763C37.4948 15.0356 38.3542 12.9479 38.3542 10.5C38.3542 8.03473 37.4948 5.94272 35.7761 4.22397C34.0573 2.50522 31.9653 1.64584 29.5 1.64584C27.0521 1.64584 24.9644 2.50522 23.237 4.22397C21.5096 5.94272 20.6458 8.03473 20.6458 10.5C20.6458 12.9479 21.5096 15.0356 23.237 16.763C24.9644 18.4905 27.0521 19.3542 29.5 19.3542Z" fill="white"/>
</svg>
