<svg width="30" height="30" viewBox="0 0 30 30" fill="none" xmlns="http://www.w3.org/2000/svg">
<circle cx="15" cy="15" r="15" fill="#1297FC"/>
<path d="M23.3333 9.58334V20.4167C23.3333 20.75 23.2083 21.0417 22.9583 21.2917C22.7083 21.5417 22.4167 21.6667 22.0833 21.6667H7.91666C7.58332 21.6667 7.29166 21.5417 7.04166 21.2917C6.79166 21.0417 6.66666 20.75 6.66666 20.4167V9.58334C6.66666 9.25 6.79166 8.95834 7.04166 8.70834C7.29166 8.45834 7.58332 8.33334 7.91666 8.33334H22.0833C22.4167 8.33334 22.7083 8.45834 22.9583 8.70834C23.2083 8.95834 23.3333 9.25 23.3333 9.58334ZM7.91666 11.8542H22.0833V9.58334H7.91666V11.8542ZM7.91666 14.5417V20.4167H22.0833V14.5417H7.91666Z" fill="white"/>
</svg>
