<svg width="30" height="30" viewBox="0 0 30 30" fill="none" xmlns="http://www.w3.org/2000/svg">
<circle cx="15" cy="15" r="15" fill="#1297FC"/>
<path d="M15.0417 20.8333L17.4167 18.4792L15.0417 16.125L14.1667 17L15.0625 17.8958C14.6736 17.9097 14.2951 17.8472 13.9271 17.7083C13.559 17.5694 13.2292 17.3542 12.9375 17.0625C12.6597 16.7847 12.4479 16.4653 12.3021 16.1042C12.1562 15.7431 12.0833 15.3819 12.0833 15.0208C12.0833 14.7847 12.1146 14.5486 12.1771 14.3125C12.2396 14.0764 12.3264 13.8472 12.4375 13.625L11.5208 12.7083C11.2847 13.0556 11.1111 13.4236 11 13.8125C10.8889 14.2014 10.8333 14.5972 10.8333 15C10.8333 15.5278 10.9375 16.0486 11.1458 16.5625C11.3542 17.0764 11.6597 17.5347 12.0625 17.9375C12.4653 18.3403 12.9167 18.6424 13.4167 18.8437C13.9167 19.0451 14.4305 19.1528 14.9583 19.1667L14.1667 19.9583L15.0417 20.8333ZM18.4792 17.2917C18.7153 16.9444 18.8889 16.5764 19 16.1875C19.1111 15.7986 19.1667 15.4028 19.1667 15C19.1667 14.4722 19.066 13.9479 18.8646 13.4271C18.6632 12.9062 18.3611 12.4444 17.9583 12.0417C17.5555 11.6389 17.1007 11.3403 16.5937 11.1458C16.0868 10.9514 15.5694 10.8542 15.0417 10.8542L15.8333 10.0417L14.9583 9.16666L12.5833 11.5208L14.9583 13.875L15.8333 13L14.9167 12.0833C15.2917 12.0833 15.6736 12.1562 16.0625 12.3021C16.4514 12.4479 16.7847 12.6597 17.0625 12.9375C17.3403 13.2153 17.5521 13.5347 17.6979 13.8958C17.8437 14.2569 17.9167 14.6181 17.9167 14.9792C17.9167 15.2153 17.8854 15.4514 17.8229 15.6875C17.7604 15.9236 17.6736 16.1528 17.5625 16.375L18.4792 17.2917ZM15 23.3333C13.8611 23.3333 12.7847 23.1146 11.7708 22.6771C10.7569 22.2396 9.87152 21.6424 9.11457 20.8854C8.35763 20.1285 7.76041 19.2431 7.32291 18.2292C6.88541 17.2153 6.66666 16.1389 6.66666 15C6.66666 13.8472 6.88541 12.7639 7.32291 11.75C7.76041 10.7361 8.35763 9.85416 9.11457 9.10416C9.87152 8.35416 10.7569 7.76041 11.7708 7.32291C12.7847 6.88541 13.8611 6.66666 15 6.66666C16.1528 6.66666 17.2361 6.88541 18.25 7.32291C19.2639 7.76041 20.1458 8.35416 20.8958 9.10416C21.6458 9.85416 22.2396 10.7361 22.6771 11.75C23.1146 12.7639 23.3333 13.8472 23.3333 15C23.3333 16.1389 23.1146 17.2153 22.6771 18.2292C22.2396 19.2431 21.6458 20.1285 20.8958 20.8854C20.1458 21.6424 19.2639 22.2396 18.25 22.6771C17.2361 23.1146 16.1528 23.3333 15 23.3333ZM15 22.0833C16.9722 22.0833 18.6458 21.3924 20.0208 20.0104C21.3958 18.6285 22.0833 16.9583 22.0833 15C22.0833 13.0278 21.3958 11.3542 20.0208 9.97916C18.6458 8.60416 16.9722 7.91666 15 7.91666C13.0417 7.91666 11.3715 8.60416 9.98957 9.97916C8.60763 11.3542 7.91666 13.0278 7.91666 15C7.91666 16.9583 8.60763 18.6285 9.98957 20.0104C11.3715 21.3924 13.0417 22.0833 15 22.0833Z" fill="white"/>
</svg>
