<svg width="21" height="35" viewBox="0 0 21 35" fill="none" xmlns="http://www.w3.org/2000/svg">
<path d="M6.3457 26.2727L9.07298 33.9645H9.14968L11.877 26.2727H12.7122L9.53746 35H8.68519L5.51048 26.2727H6.3457ZM14.0588 35V28.4545H14.8216V35H14.0588ZM14.0929 27.5469L15.1838 25.6122H16.0829L14.7747 27.5469H14.0929Z" fill="#1297FC"/>
<path d="M1.64584 19.875C1.22918 19.875 0.864593 19.7188 0.552093 19.4063C0.239593 19.0938 0.0833435 18.7292 0.0833435 18.3125V5.81251C0.0833435 5.39584 0.239593 5.03126 0.552093 4.71876C0.864593 4.40626 1.22918 4.25001 1.64584 4.25001H6.33334V1.64584C6.33334 1.22918 6.48959 0.864594 6.80209 0.552094C7.11459 0.239594 7.47918 0.0833435 7.89584 0.0833435H13.1042C13.5208 0.0833435 13.8854 0.239594 14.1979 0.552094C14.5104 0.864594 14.6667 1.22918 14.6667 1.64584V4.25001H19.3542C19.7708 4.25001 20.1354 4.40626 20.4479 4.71876C20.7604 5.03126 20.9167 5.39584 20.9167 5.81251V18.3125C20.9167 18.7292 20.7604 19.0938 20.4479 19.4063C20.1354 19.7188 19.7708 19.875 19.3542 19.875H1.64584ZM1.64584 18.3125H19.3542V5.81251H1.64584V18.3125ZM7.89584 4.25001H13.1042V1.64584H7.89584V4.25001Z" fill="#1297FC"/>
</svg>
